<svg width="40" height="40" viewBox="0 0 40 40" fill="none" xmlns="http://www.w3.org/2000/svg">
<path d="M35.5556 0H29.5556H10.4444H4.44444C3.2657 0 2.13524 0.468252 1.30175 1.30175C0.468252 2.13524 0 3.2657 0 4.44444V10.4444V29.7778V35.5556C0 36.7343 0.468252 37.8648 1.30175 38.6983C2.13524 39.5317 3.2657 40 4.44444 40H10.4444H29.7778H35.5556C36.7343 40 37.8648 39.5317 38.6983 38.6983C39.5317 37.8648 40 36.7343 40 35.5556V29.5556V10.4444V4.44444C40 3.2657 39.5317 2.13524 38.6983 1.30175C37.8648 0.468252 36.7343 0 35.5556 0ZM28 31.1111L20 23.1111L12 31.1111L8.88889 28L16.8889 20L8.88889 12L12 8.88889L20 16.8889L28 8.88889L31.1111 12L23.1111 20L31.1111 28L28 31.1111Z" fill="#191B1D"/>
</svg>

